<?xml version="1.0" standalone="no"?>
<!DOCTYPE svg PUBLIC "-//W3C//DTD SVG 1.1//EN" "http://www.w3.org/Graphics/SVG/1.1/DTD/svg11.dtd" >
<svg xmlns="http://www.w3.org/2000/svg">
<metadata></metadata>
<defs>
<font id="dk_prince_frogregular" horiz-adv-x="813" >
<font-face units-per-em="2048" ascent="1638" descent="-410" />
<missing-glyph horiz-adv-x="557" />
<glyph horiz-adv-x="0" />
<glyph horiz-adv-x="682" />
<glyph unicode=" "  horiz-adv-x="557" />
<glyph unicode="&#x09;" horiz-adv-x="557" />
<glyph unicode="&#xa0;" horiz-adv-x="557" />
<glyph unicode="!" horiz-adv-x="417" d="M61 1524h228l6 -1159l-168 -21zM86 131q0 53 37 87t90 34q58 0 100.5 -40.5t42.5 -98.5q0 -51 -37.5 -84t-89.5 -33q-62 0 -102.5 36.5t-40.5 98.5z" />
<glyph unicode="&#x22;" horiz-adv-x="548" d="M61 1524l177 8l-41 -430l-111 -17zM311 1524l176 8l-41 -430l-110 -17z" />
<glyph unicode="$" horiz-adv-x="882" d="M61 162l60 207q2 -1 56.5 -16.5t94 -24t78.5 -11.5l10 422q-117 70 -163 111q-115 103 -115 254q0 165 80.5 289t218.5 159l4 111l74 -25l-2 -73h22q125 0 260 -66l-63 -233q-62 32 -139 32q-45 0 -88 -16l-9 -287q17 -10 55 -32t63 -36.5t62.5 -41t62 -50.5t53.5 -60 t45.5 -73.5t28 -87.5t11.5 -106q0 -97 -32.5 -179.5t-88.5 -138.5t-129.5 -90t-156.5 -41l-4 -170l-70 -8l4 176q-156 10 -283 105zM346 1104q0 -27 23 -53l4 166q-27 -49 -27 -113zM422 319q141 21 141 189q0 61 -33.5 104.5t-97.5 85.5z" />
<glyph unicode="'" horiz-adv-x="299" d="M61 1524l177 8l-41 -430l-111 -17z" />
<glyph unicode="(" horiz-adv-x="583" d="M61 731q0 150 38 284t118.5 235t190.5 130l65 -145q-73 -36 -127.5 -118t-81 -184.5t-26.5 -211.5q0 -115 29.5 -211.5t95 -165.5t159.5 -82l-53 -160q-98 2 -177.5 56.5t-129 143.5t-75.5 199t-26 230z" />
<glyph unicode=")" horiz-adv-x="583" d="M61 262q94 13 160 82t95.5 165.5t29.5 211.5q0 109 -26.5 211.5t-81 184.5t-127.5 118l65 145q83 -22 150 -85.5t109 -153t64.5 -194.5t22.5 -216q0 -120 -26 -230t-75 -199t-128.5 -143.5t-177.5 -56.5z" />
<glyph unicode="," horiz-adv-x="393" d="M61 172q0 54 37 87.5t90 33.5q58 0 101 -40.5t43 -98.5q0 -107 -41 -161.5t-135 -82.5q71 71 71 117q0 6 -8 7t-37 1q-22 0 -38.5 4t-36 16.5t-31.5 42t-15 74.5z" />
<glyph unicode="-" horiz-adv-x="753" d="M61 725l631 -4l-16 -201h-598z" />
<glyph unicode="." horiz-adv-x="393" d="M61 172q0 53 37 87t90 34q58 0 101 -40.5t43 -98.5q0 -51 -37.5 -84t-89.5 -33q-62 0 -103 37t-41 98z" />
<glyph unicode="/" horiz-adv-x="710" d="M61 225l420 1219l168 -60l-416 -1230z" />
<glyph unicode="0" d="M61 918q0 555 334 555q69 0 125 -35t92 -89t63.5 -132t41.5 -151.5t22.5 -161.5t10.5 -147t2 -122q0 -48 -1 -85.5t-6.5 -101.5t-15.5 -112t-30 -103.5t-48 -91.5t-71 -60t-97 -24q-70 0 -130.5 36.5t-103 95.5t-76 137.5t-54 159.5t-34.5 165t-19 149.5t-5 117.5z M283 838q0 -118 22 -238t69 -208.5t107 -88.5q39 0 57.5 112.5t18.5 262.5q0 92 -8 180.5t-25 171.5t-48 133.5t-73 50.5q-40 -1 -68 -59.5t-40 -141t-12 -175.5z" />
<glyph unicode="1" horiz-adv-x="557" d="M61 1186l220 248l122 16l93 -1423h-222l-61 1038l-137 33z" />
<glyph unicode="2" horiz-adv-x="770" d="M61 289q46 34 120 146t142.5 247t118.5 277t50 227q0 104 -82 104q-55 -3 -96.5 -62t-41.5 -157q0 -38 13 -88h-211q-13 67 -13 123q0 164 86.5 273.5t249.5 109.5t237.5 -82t74.5 -223q0 -105 -38 -239t-96 -258t-121 -230.5t-120 -177.5l352 22l6 -227l-629 -23z" />
<glyph unicode="3" horiz-adv-x="700" d="M61 1430q94 38 195 38q148 0 235 -81.5t87 -245.5q0 -122 -78 -209q-2 -2 -2 -10q46 -44 93.5 -149.5t47.5 -215.5q0 -247 -115.5 -376.5t-371.5 -129.5l-23 246q128 20 174 40q94 42 102 154q1 12 1 25q0 46 -2.5 81t-10 62t-15.5 46t-24.5 32.5t-31 21.5t-42 13.5 t-49.5 8t-61 5.5v172q72 2 138.5 52.5t66.5 124.5q0 63 -37.5 97t-95.5 34q-96 0 -170 -80z" />
<glyph unicode="4" horiz-adv-x="839" d="M61 672l66 794l225 -26l-49 -518l189 -2l-9 567l226 -12l69 -1364l-217 -19l-41 584z" />
<glyph unicode="5" horiz-adv-x="882" d="M61 160l97 268q48 -43 119.5 -72.5t136.5 -29.5q79 0 129.5 46t50.5 142q0 47 -21.5 85.5t-52.5 64t-77 45.5t-83 30.5t-84 18t-67 9t-43 3.5h-8v725l514 -14l-2 -242h-287v-283q206 -24 322 -126.5t116 -284.5q0 -207 -135 -337t-330 -130q-152 0 -295 82z" />
<glyph unicode="6" horiz-adv-x="800" d="M61 541q0 494 332 882l189 -141q-279 -350 -279 -635q82 31 154 31q125 0 203.5 -82.5t78.5 -220.5q0 -137 -73.5 -232.5t-202.5 -95.5q-76 0 -141.5 28.5t-112.5 77.5t-81 112.5t-50.5 133.5t-16.5 142zM311 377q0 -68 42 -99.5t108 -31.5q62 0 83 32t21 103 q0 54 -41 86.5t-94 32.5q-50 0 -84.5 -31t-34.5 -92z" />
<glyph unicode="7" horiz-adv-x="731" d="M61 1178l7 256l602 -9l-15 -237l-258 -1090l-215 35l226 1049z" />
<glyph unicode="8" horiz-adv-x="954" d="M61 449q0 105 48 198t129 154q-27 28 -44 64.5t-23.5 80t-8.5 72.5t-2 72t1.5 73.5t9 70t20 67t36.5 56t57.5 46t84 28.5t114.5 11q76 0 134 -21t91 -53t53.5 -77.5t27 -86.5t6.5 -88q0 -65 -3 -107t-23 -102.5t-58 -99.5q84 -59 133 -154t49 -204q0 -117 -56 -217 t-151.5 -158t-208.5 -58t-208.5 58t-151.5 158t-56 217zM287 455q0 -95 58 -163.5t140 -68.5t139.5 68.5t57.5 163.5q0 97 -57.5 165t-139.5 68t-140 -68t-58 -165zM369 1102q1 -92 23 -150.5t59 -72.5q10 2 26 2h21q89 26 92 221q0 168 -111 168q-51 0 -80.5 -34 t-29.5 -126v-8z" />
<glyph unicode="9" horiz-adv-x="800" d="M61 1096q0 136 74 231.5t203 95.5q76 0 141.5 -28.5t112.5 -77t80.5 -112t50 -133.5t16.5 -142q0 -497 -331 -883l-189 141q279 350 279 635q-80 -30 -154 -30q-125 0 -204 82.5t-79 220.5zM236 1090q0 -54 41 -86.5t94 -32.5q50 0 84 31t34 92q0 68 -41.5 99.5 t-107.5 31.5q-62 0 -83 -32t-21 -103z" />
<glyph unicode=":" horiz-adv-x="393" d="M61 172q0 53 37 87t90 34q58 0 101 -40.5t43 -98.5q0 -51 -37.5 -84t-89.5 -33q-62 0 -103 37t-41 98zM61 891q0 53 37 87t90 34q58 0 101 -41t43 -99q0 -51 -37 -83.5t-90 -32.5q-62 0 -103 37t-41 98z" />
<glyph unicode=";" horiz-adv-x="393" d="M61 172q0 53 37 87t90 34q58 0 101 -40.5t43 -98.5q0 -105 -37.5 -172t-130.5 -142q51 170 51 195q0 18 -14 18q-16 0 -37 -8q-6 -2 -19 -2q-35 0 -59.5 40t-24.5 89zM61 891q0 53 37 87t90 34q58 0 101 -41t43 -99q0 -51 -37 -83.5t-90 -32.5q-62 0 -103 37t-41 98z" />
<glyph unicode="?" horiz-adv-x="770" d="M61 1106q0 164 86.5 273.5t249.5 109.5t237.5 -82t74.5 -223q0 -204 -127 -451l-13 -393l-213 -4l-4 393q140 283 140 457q0 104 -82 104q-55 -3 -96.5 -62t-41.5 -157q0 -38 13 -88h-211q-13 67 -13 123zM319 139q0 53 37 87t90 34q58 0 101 -40.5t43 -98.5 q0 -51 -37.5 -84t-89.5 -33q-62 0 -103 37t-41 98z" />
<glyph unicode="@" horiz-adv-x="1331" d="M61 823q0 151 48 288.5t129 237t193 158t235 58.5q164 0 300.5 -99.5t216.5 -269.5t87 -373v-24q0 -113 -33 -220.5t-90.5 -177t-122.5 -69.5q-120 0 -217 233q-87 -94 -207 -94q-103 0 -175.5 80t-72.5 213q0 38 6.5 67t17 49t30.5 36.5t39.5 27t51 21.5t59 18.5 t69.5 20t77 24.5q21 6 21 21q0 26 -53.5 33.5t-198.5 7.5h-27l19 170q37 6 98 6q80 0 141.5 -32t98 -84.5t63.5 -120t39.5 -138t24 -138t20 -121t24.5 -87t40 -35.5q1 0 4 1t4 1q28 9 46 31.5t26.5 58t11 68t2.5 78.5v96q0 152 -59 281t-161.5 204.5t-223.5 75.5 t-223.5 -75.5t-162 -204.5t-59.5 -281t59.5 -281t162 -204.5t223.5 -75.5q30 0 88 9.5t86 18.5l114 -127q-102 -102 -284 -102q-164 0 -303.5 99t-220.5 269.5t-81 372.5zM535 729q0 -108 81 -108q54 0 158 63l-39 203q-53 -14 -91 -30t-58.5 -30t-32 -31t-14.5 -29t-4 -28 v-10z" />
<glyph unicode="A" d="M61 766q7 372 18 475q18 174 79 240q60 65 206 73q30 2 66 2q86 0 139 -17t90 -64.5t55.5 -122t28.5 -197.5q9 -123 9 -487t-9 -531l-241 4l-4 424l-199 -14l-6 -424l-221 4zM274 803l220 6v182q0 71 -3 121.5t-12 103.5t-30 81t-52 28h-12q-21 0 -36.5 -7.5t-34.5 -32 t-29.5 -83.5t-10.5 -149v-250z" />
<glyph unicode="B" horiz-adv-x="876" d="M61 1473v43q104 25 230 28h16q180 0 271.5 -88t91.5 -237q0 -143 -76 -301q100 -37 160.5 -157t60.5 -265q0 -75 -17 -145.5t-55 -135.5t-94 -113.5t-139 -77t-184 -28.5q-10 0 -40.5 -1t-49.5 -1q-116 0 -130 49q0 12 -22.5 628.5t-22.5 801.5zM291 1343l14 -364 q0 -14 10 -14q19 0 57 39t70.5 100.5t32.5 112.5q0 110 -149 129h-11q-12 0 -24 -3zM340 254q0 -25 47 -25q70 0 106.5 57t36.5 130q0 46 -9 97.5t-29 107t-59.5 91.5t-92.5 36v-494z" />
<glyph unicode="C" horiz-adv-x="864" d="M61 739v33q0 65 5 125.5t21 134.5t42 136.5t70.5 125.5t103.5 109.5t145 80t191 44.5l47 -248q-87 -2 -155.5 -34.5t-111.5 -83t-71.5 -120t-39.5 -140.5t-11 -150q0 -61 10 -124.5t35 -130.5t62 -119t96.5 -85t132.5 -33q71 0 145 27l25 -254q-107 -21 -172 -21 q-112 0 -206.5 40.5t-160.5 110t-112.5 162.5t-68.5 197.5t-22 216.5z" />
<glyph unicode="D" horiz-adv-x="888" d="M61 1569q61 10 140 10q133 0 240.5 -47.5t178.5 -127t118.5 -190t68 -231t20.5 -254.5q0 -118 -18.5 -219.5t-65.5 -197.5t-120 -163.5t-189 -108t-266 -40.5h-25zM332 1307l53 -1008q52 7 92.5 52.5t65 118t37 159t12.5 180.5q0 119 -27.5 230t-86 189.5t-136.5 78.5 h-10z" />
<glyph unicode="E" horiz-adv-x="800" d="M61 1540l555 25l25 -246l-319 -25l22 -426l227 21l21 -234l-240 -8l15 -358l352 22l20 -245l-622 -23z" />
<glyph unicode="F" horiz-adv-x="735" d="M61 49l33 1467q511 18 562 18h6l12 -268l-346 4l-4 -361l192 -2l-12 -256h-176l-25 -606z" />
<glyph unicode="G" horiz-adv-x="905" d="M61 745q0 71 6 142.5t22 151.5t40 150.5t63.5 136.5t89 113t120 75t153.5 28q64 0 111.5 -20.5t75.5 -53t45 -82t22.5 -99.5t5.5 -113v-78l-227 -19q-3 17 -3.5 44.5t-2 45t-7.5 36t-22.5 27.5t-44.5 9q-63 0 -108 -52.5t-65.5 -133t-29 -148t-8.5 -125.5q0 -42 4 -93 t17 -122t33.5 -127t58 -95.5t86.5 -39.5q37 0 77.5 44.5t40.5 82.5l-145 31q14 113 25 207q4 41 10 41h2q35 0 338 -95q-27 -206 -54 -297q-76 -257 -271 -275q-15 -1 -30 -1q-428 0 -428 704z" />
<glyph unicode="H" horiz-adv-x="907" d="M61 33l5 1523l278 -14l-2 -612h207v586l270 16l27 -1497h-273l-8 594l-243 2v-602z" />
<glyph unicode="I" horiz-adv-x="413" d="M61 1524h269l22 -1479l-254 -16z" />
<glyph unicode="J" horiz-adv-x="741" d="M61 82l54 227q12 -2 85 -21.5t105 -19.5q58 0 88.5 46.5t30.5 166.5q0 90 -47 983q0 6 -1 14t-1 9l278 29l27 -1086q0 -211 -100.5 -324.5t-251.5 -113.5q-136 0 -267 90z" />
<glyph unicode="K" horiz-adv-x="901" d="M61 1548l258 29l-12 -631l352 443l181 -160l-496 -590l479 -401l-135 -209l-369 331l17 -340h-266z" />
<glyph unicode="L" horiz-adv-x="778" d="M61 1577l226 20l78 -1224l315 37l37 -205l-572 -86z" />
<glyph unicode="M" horiz-adv-x="1288" d="M61 115l123 1315l293 -17l160 -676q68 690 72 707l295 41l223 -1391l-234 -45l-125 858l-112 -624h-250l-129 649l-86 -860z" />
<glyph unicode="N" horiz-adv-x="946" d="M61 74l25 1360h195l337 -854l21 854l246 -17l-58 -1317l-211 -24l-321 702v-719z" />
<glyph unicode="O" horiz-adv-x="798" d="M61 856q0 260 32.5 408t99 209t182.5 61q20 0 35 1t16 1q309 0 309 -752q0 -21 1 -82.5t1 -99.5q0 -71 -3.5 -129t-13 -127.5t-29.5 -122t-50 -98t-78 -70t-110 -24.5q-60 0 -110 12.5t-87.5 32.5t-67 53.5t-49.5 68t-34.5 82.5t-22 90.5t-12.5 99.5t-6 101.5t-1 104.5z M307 854q0 -498 94 -498q42 0 65 120.5t23 291.5q0 187 -28.5 325t-81.5 138q-19 0 -33 -14.5t-21 -36.5t-10.5 -43t-3.5 -39q0 -2 -2 -88t-2 -156z" />
<glyph unicode="P" horiz-adv-x="794" d="M61 1479q0 40 17.5 57.5t77.5 17.5q108 0 159.5 -1t127.5 -10t109.5 -27.5t77 -52t60.5 -85t30 -126.5t13 -177q0 -42 -5.5 -78t-18 -65t-25.5 -52t-36.5 -42t-42.5 -32.5t-51.5 -25.5t-55 -19.5t-62.5 -15t-64 -11.5t-69 -11l12 -703l-233 -4q-5 347 -9 631.5t-6 417 t-3.5 229.5t-2 129.5t-0.5 55.5zM311 973q79 0 130 41.5t51 124.5q0 67 -38.5 117.5t-101.5 50.5q-16 0 -41 -7v-327z" />
<glyph unicode="Q" horiz-adv-x="991" d="M61 662v38q0 204 22.5 354.5t59 239t92 142t110.5 71t126 17.5q88 0 157 -37t111.5 -97.5t70 -145t38 -172t10.5 -187.5q0 -228 -63 -475l135 -119l-154 -205l-123 119q-32 -57 -67 -96t-62.5 -58.5t-63.5 -29.5t-55.5 -11.5t-54.5 -1.5h-10q-57 2 -102 28.5t-74 62.5 t-49.5 96t-30.5 109.5t-15.5 125t-6.5 119t-1 113.5zM305 618q0 -286 101 -286q40 0 88 37l-111 129l117 157l114 -98q0 16 5.5 119.5t5.5 173.5q0 389 -150 389q-50 0 -86 -59.5t-52 -146.5t-23 -153.5t-7 -111.5q0 -14 -1 -66t-1 -84z" />
<glyph unicode="R" horiz-adv-x="878" d="M61 1552q80 13 140 13q120 0 221 -36.5t167.5 -97.5t103 -141.5t36.5 -169.5q0 -58 -11.5 -117.5t-36 -120t-69.5 -109.5t-104 -73l309 -581l-213 -127l-4 10l-266 569l24 -567l-266 19zM289 883q24 -4 37 -4q49 0 85.5 23t55 59t27 69.5t8.5 63.5q0 72 -55 138t-115 66 h-10q-31 -5 -31 -22z" />
<glyph unicode="S" horiz-adv-x="882" d="M61 162l60 207q7 -2 65.5 -18.5t105.5 -25t89 -8.5q182 0 182 191q0 52 -26.5 94t-69 72t-93.5 59t-102.5 62.5t-94 73t-69 100t-26.5 135.5q0 194 108.5 327.5t288.5 133.5q125 0 260 -66l-63 -233q-62 32 -139 32q-81 0 -136 -47t-55 -147q0 -29 26 -56t68 -51.5 t93 -53t101.5 -67.5t92.5 -87t68 -120.5t26 -160.5q0 -137 -63 -241.5t-163.5 -157t-221.5 -52.5q-169 0 -312 105z" />
<glyph unicode="T" horiz-adv-x="856" d="M61 1171l9 328l708 29l17 -324l-226 -24l2 -1102l-256 -4v1093z" />
<glyph unicode="U" horiz-adv-x="968" d="M61 946q0 234 43 481l236 -18q0 -68 -4 -223.5t-4 -239.5v-24v-83t1 -83.5t3 -85t5 -79.5t8.5 -76.5t12.5 -65.5t17 -57.5t22 -42.5t28.5 -29t35.5 -9q105 0 142.5 84.5t37.5 280.5q0 91 -10.5 338t-13.5 403l249 25q4 -73 14.5 -207.5t16.5 -247.5t6 -217 q0 -70 -2 -124.5t-10 -137t-23 -144t-43.5 -130t-68 -112.5t-100 -73t-136.5 -29q-242 0 -352.5 230.5t-110.5 695.5z" />
<glyph unicode="V" horiz-adv-x="1093" d="M61 1434l295 73l193 -983l164 983l319 -45l-364 -1360h-232z" />
<glyph unicode="W" horiz-adv-x="1449" d="M61 1458l254 37l107 -864l186 598h150l209 -721l192 987l230 -53l-304 -1401l-237 33l-172 649q-52 -231 -101 -451l-26 -116l-242 -58z" />
<glyph unicode="X" horiz-adv-x="1019" d="M61 1249l191 238l237 -447l220 471l221 -165l-279 -551l307 -541l-190 -229l-268 428l-224 -476q-10 0 -53 39.5t-90.5 87l-52.5 52.5l260 561z" />
<glyph unicode="Y" horiz-adv-x="1144" d="M61 1356l201 160l311 -553l277 520l233 -125l-391 -662l-37 -639l-254 9l41 659z" />
<glyph unicode="Z" horiz-adv-x="905" d="M61 139l15 295l497 823l-436 43l27 248l680 -69l-15 -228l-505 -862l471 -29l-21 -270z" />
<glyph unicode="_" horiz-adv-x="1101" d="M61 152l967 -9l12 -143h-974z" />
<glyph unicode="a" horiz-adv-x="884" d="M61 385q0 85 17 139.5t70 93.5t93.5 56.5t143.5 53.5q58 21 90 32q25 8 25 26q0 54 -103 54q-87 0 -227 -37l-25 205q121 26 265 26q76 0 132.5 -20t92 -54t60.5 -87.5t37.5 -111t23 -135.5t17 -150t20 -165.5t30.5 -171.5l-176 -76l-24 117q-123 -139 -275 -139 q-131 0 -209 86t-78 258zM266 375q0 -36 7 -65t31 -53t63 -24q74 0 219 95l-47 262q-269 -74 -273 -203v-12z" />
<glyph unicode="b" horiz-adv-x="970" d="M68 1489l251 33l37 -824q106 95 222 95q90 0 165 -59t117.5 -155.5t42.5 -205.5q0 -95 -28.5 -174t-89 -130t-144.5 -51q-179 0 -240 125l-6 -110l-235 35zM387 477l14 -184q18 -10 73.5 -19.5t88.5 -9.5q56 0 93.5 28.5t37.5 90.5q0 88 -33 127t-83 39 q-40 0 -100.5 -24.5t-90.5 -47.5z" />
<glyph unicode="c" horiz-adv-x="731" d="M61 477v21q0 115 65 214t175.5 157.5t239.5 58.5q37 0 71 -6l27 -187q-56 -2 -111.5 -17t-106.5 -42t-82.5 -73.5t-31.5 -104.5q0 -120 77.5 -183t195.5 -63q49 0 90 8l-11 -162q-87 -35 -176 -35q-112 0 -207 49t-155 145t-60 220z" />
<glyph unicode="d" horiz-adv-x="927" d="M90 508q0 183 97.5 296.5t242.5 113.5q25 0 43.5 -2t43 -9t43 -24t30.5 -43l-53 784l235 27l88 -1592l-188 -49l-37 154q-16 -44 -47.5 -76.5t-70 -50t-74 -25.5t-68.5 -8q-87 0 -152.5 68t-99 182t-33.5 254zM266 492q0 -104 50 -187.5t126 -83.5q63 0 113.5 36t50.5 99 l-22 346q-56 15 -133 15q-92 0 -138.5 -64.5t-46.5 -160.5z" />
<glyph unicode="e" horiz-adv-x="888" d="M61 565q0 94 16.5 165.5t56.5 133t116.5 94.5t187.5 33q185 0 262 -78t80 -256v-34q-2 -24 -12 -46t-41 -51t-79.5 -53t-135.5 -46.5t-201 -35.5q11 -139 119 -139q65 0 149.5 45.5t141.5 101.5l106 -166q-95 -85 -199 -132.5t-190 -47.5q-117 0 -204 70.5t-130 185 t-43 256.5zM268 682q0 -19 8 -117q31 0 80 7.5t105.5 22.5t96.5 43t40 64q0 47 -39 72t-94 25q-75 0 -136 -32.5t-61 -84.5z" />
<glyph unicode="f" horiz-adv-x="591" d="M68 1176v24q0 55 14 99.5t37 75.5t58.5 55t71.5 38t83.5 23.5t87.5 13.5t90 6l14 -227q-10 2 -57 2l-42 -3t-35.5 -5.5t-32 -11.5t-24 -20t-19.5 -31.5t-10.5 -46.5t-4.5 -64q0 -76 18 -195l172 15q5 -183 5 -222l-138 -20l45 -702l-225 -21q-29 336 -56.5 638t-38.5 422 t-13 157z" />
<glyph unicode="g" horiz-adv-x="1101" d="M68 -102q3 70 52.5 136.5t145.5 100.5q-19 19 -37.5 54t-17.5 67q7 64 33 102q-43 25 -70.5 60.5t-38.5 80t-13.5 73.5t-2.5 73v49q3 48 12 83t34.5 73.5t67 62.5t114.5 40t173 16q120 0 217 -39l119 170l135 -127l-160 -101q72 -72 76 -202q-2 -10 -2 -29v-51 q-2 -44 -9.5 -80t-29.5 -77t-56.5 -69t-96 -46.5t-142.5 -18.5q-59 0 -116 8q-66 -34 -68 -74q0 -34 70 -34q45 0 136.5 6t135.5 6q144 0 224.5 -85t80.5 -206v-16q-5 -113 -83 -206t-216 -124q-86 -16 -153 -16q-83 0 -163.5 16t-154.5 48t-126 89.5t-66 132.5q-4 18 -4 54 zM246 -59v-4q0 -73 85 -116.5t226 -43.5q35 0 62.5 3.5t60.5 13.5t53 35t23 62v13q0 48 -26 69t-72 25t-98.5 5.5t-117.5 21t-116 61.5q-77 -80 -80 -145zM369 635q4 -94 39.5 -127t101.5 -33q59 0 95 29t40 106l2 19q-3 153 -137 153q-61 0 -98 -28t-43 -103v-16z" />
<glyph unicode="h" horiz-adv-x="827" d="M61 1681l250 23l21 -803q69 49 145 49q114 0 201.5 -93t87.5 -210v-565h-217v326q0 57 -4.5 99t-15.5 79.5t-34 58.5t-57 25q-94 0 -94 -168q0 -33 31 -465l-225 -12z" />
<glyph unicode="i" horiz-adv-x="415" d="M10 1378q0 64 30.5 108t84.5 44q180 0 180 -201q0 -84 -24.5 -117.5t-104.5 -33.5q-79 0 -122.5 61t-43.5 139zM78 1036l256 15l14 -889l-203 10z" />
<glyph unicode="j" horiz-adv-x="444" d="M-248 -236l164 132q24 -39 50 -61.5t69 -29.5q3 0 8.5 -1t7.5 -1q42 1 65.5 18t37.5 69t14 147q0 212 -92 987l225 25q22 -124 52 -481t30 -527q0 -217 -82 -334t-240 -117q-165 0 -309 174zM-33 1458q0 66 33 111t96 45q105 0 147 -40.5t42 -156.5q0 -91 -42 -124 t-132 -33q-64 0 -104 60.5t-40 137.5z" />
<glyph unicode="k" horiz-adv-x="794" d="M61 1653l228 14l16 -807l254 260l150 -162l-340 -344l364 -354l-151 -158l-240 277l12 -285l-229 -22z" />
<glyph unicode="l" horiz-adv-x="671" d="M61 1395l242 20v-1153l307 33l-18 -211l-477 -35z" />
<glyph unicode="m" horiz-adv-x="1271" d="M61 958l226 19l-4 -119q34 78 131 78q75 0 139.5 -50.5t64.5 -146.5q2 0 9 14t18.5 36.5t29 49.5t45 54t62 49.5t85 36.5t108.5 14q235 0 235 -403q0 -60 -6 -130t-13 -120t-19.5 -131.5t-18.5 -122.5l-211 4q10 96 24.5 202.5t19.5 165t5 138.5q0 53 -4.5 90.5 t-10.5 55.5t-17 27.5t-17.5 11t-19.5 1.5q-46 0 -81.5 -24.5t-55.5 -65.5t-30 -87.5t-12 -98.5l-12 -412l-209 -6v80q0 81 -0.5 124.5t-3 117.5t-9 115t-17.5 86.5t-29 66t-43 20.5q-46 0 -68 -42t-24 -99l-21 -469l-215 -14z" />
<glyph unicode="n" horiz-adv-x="790" d="M68 1067l194 -16l12 -109q99 51 179 51q86 0 148.5 -56t92 -148t29.5 -209q0 -233 -23 -482q0 -2 -8 -2q-36 0 -207 15l2 456q0 180 -65 193q-20 4 -25 4q-45 0 -78 -50.5t-38 -103.5l-5 -489l-202 12z" />
<glyph unicode="o" horiz-adv-x="729" d="M61 547v8q0 55 1.5 93.5t8.5 89.5t19 85.5t35 72t55 59.5t80 36.5t109 14.5q74 0 129.5 -27.5t87 -69t51 -100.5t25.5 -112.5t6 -114.5q0 -54 -1.5 -92t-8 -95.5t-18.5 -98t-36 -85.5t-56.5 -73.5t-83 -47t-114.5 -18.5q-47 0 -85.5 11t-66.5 28t-50.5 46t-36.5 55 t-24 65.5t-15 68t-7.5 72t-3 67t-0.5 62.5zM260 565q2 -137 28 -216t70 -79q46 0 79 72t34 223q0 217 -104 217q-50 0 -78.5 -44.5t-28.5 -162.5v-10z" />
<glyph unicode="p" horiz-adv-x="831" d="M61 942l189 49l12 -102q99 102 219 102t204.5 -105t84.5 -284q0 -222 -103 -318t-339 -96h-19v-649l-213 -4zM305 748l12 -304q71 -18 117 -18q137 0 137 143v17q-6 94 -38 141t-101 47q-53 0 -127 -26z" />
<glyph unicode="q" horiz-adv-x="845" d="M68 657q0 181 84.5 281t209.5 100q108 0 209 -73l19 139l184 -27l-31 -1227h60v-120l-64 6l-2 -119l-213 4v117l-73 -12l-31 116l104 2v410h-16q-234 0 -337 93.5t-103 309.5zM264 627q0 -68 34 -105t103 -37q44 0 115 19l12 297q-77 24 -125 24q-70 0 -102 -46.5 t-37 -139.5v-12z" />
<glyph unicode="r" horiz-adv-x="727" d="M61 1042l195 15l8 -199q118 144 271 156q4 0 12 1t12 1q48 0 107 -19l-39 -219q-15 0 -53 3t-54 3h-16q-82 -6 -124 -79.5t-42 -184.5q0 -21 4 -67l43 -355l-221 -18z" />
<glyph unicode="s" horiz-adv-x="772" d="M61 721q0 72 30 126.5t81 84.5t110.5 44.5t127.5 14.5q133 0 229 -47l-37 -182q-9 0 -86.5 15.5t-120.5 15.5q-84 0 -84 -54q0 -18 22 -36t57.5 -34.5t78 -36t85 -44.5t78 -54t57.5 -71t22 -90q0 -134 -106.5 -230t-248.5 -96q-155 0 -264 109l109 204q30 -38 90 -71 t110 -33q80 0 80 88q0 35 -43 66.5t-104.5 59t-123.5 59t-105 81t-44 111.5z" />
<glyph unicode="t" horiz-adv-x="643" d="M61 750l2 217l154 -2l-8 481l229 -8l19 -455l125 6v-244l-125 -2l4 -661l-230 -10l-18 680z" />
<glyph unicode="u" horiz-adv-x="878" d="M68 532q0 103 20.5 251.5t20.5 156.5l245 -20q-1 -2 -2.5 -10t-3.5 -13q0 -2 -8 -39.5t-11.5 -55.5t-11 -58.5t-11 -69.5t-6.5 -67t-3 -70q0 -200 104 -218q20 -4 31 -4q36 0 62.5 19t41.5 56.5t24 80.5t12 104t4 113t2 121t4 115l229 -11l-43 -827l-203 -16 q-16 71 -18 71q-10 -15 -62.5 -26t-103.5 -11q-313 0 -313 428z" />
<glyph unicode="v" horiz-adv-x="835" d="M61 942l234 31l129 -592l133 594h217l-211 -889l-262 -2z" />
<glyph unicode="w" horiz-adv-x="1187" d="M61 631v45q0 231 25 346l231 -25v-422q0 -3 -1 -20t-1 -29q0 -127 64 -127q65 0 65 176v312l252 2v-336q0 -18 3 -41t10.5 -54.5t26.5 -52t46 -20.5q12 0 19.5 1t19.5 10t19 25t12.5 50t5.5 82v471l264 -23q0 -20 2 -128t2 -191q0 -60 -2.5 -109t-10 -109t-20.5 -106.5 t-36 -92.5t-54.5 -76.5t-78 -49t-103.5 -18.5q-122 0 -220 240l-9 18q-14 -66 -37 -115t-45 -74t-48 -40.5t-42.5 -19t-32.5 -3.5q-326 0 -326 504z" />
<glyph unicode="x" horiz-adv-x="837" d="M61 868l170 189l181 -238l151 221l176 -147l-174 -281l211 -317l-153 -164l-199 256l-164 -254l-176 121l195 356z" />
<glyph unicode="y" horiz-adv-x="833" d="M10 -150q198 78 203 78l55 -85q56 -62 97 -62q46 5 80 50t52 115t26.5 143.5t8.5 150.5q0 78 -6 127q-1 0 -3 -1t-3 -1l-10 -5q-1 0 -4 -1t-4 -1q-86 -26 -137 -26q-295 0 -295 510v16l2 172h276q-16 -54 -16 -252q0 -264 63 -264q90 0 90 139v39q0 44 -5 157t-5 177 l246 31q1 -16 14.5 -201.5t20 -318t6.5 -248.5q0 -719 -420 -719q-133 0 -219 76.5t-113 203.5z" />
<glyph unicode="z" horiz-adv-x="768" d="M61 1024l613 -2l8 -295l-272 -342l297 31l-21 -242l-584 -41l-26 211l375 461l-388 -2z" />
<glyph unicode="&#xa1;" horiz-adv-x="417" d="M61 1407q0 51 37.5 84t89.5 33q62 0 103 -37t41 -98q0 -53 -37 -87t-90 -34q-58 0 -101 40.5t-43 98.5zM123 1155l168 21l65 -1180h-227z" />
<glyph unicode="&#xaa;" horiz-adv-x="614" d="M61 1313q0 40 9.5 68t23 45t42 31.5t52 22t69 21t77.5 25.5q14 3 14 16q0 22 -40.5 27.5t-153.5 5.5h-21l14 137q29 4 76 4q60 0 108 -16.5t78.5 -43.5t54 -67t35.5 -80t21 -91t12.5 -92.5t9 -91t11.5 -79.5l-113 -63l-24 61q-73 -76 -162 -76q-80 0 -136.5 65t-56.5 171 zM203 1286q0 -88 63 -88q44 0 123 51l-31 162q-50 -14 -83 -29.5t-47.5 -31.5t-19 -28.5t-5.5 -29.5v-6z" />
<glyph unicode="&#xab;" horiz-adv-x="897" d="M61 614l283 394l164 -13l-287 -381l250 -344l-160 -20zM389 606l283 393l164 -12l-287 -381l250 -344l-160 -20z" />
<glyph unicode="&#xad;" horiz-adv-x="753" d="M61 725l631 -4l-16 -201h-598z" />
<glyph unicode="&#xba;" horiz-adv-x="585" d="M61 1399v6q0 36 1 60.5t6.5 58t14.5 56t26.5 46.5t41.5 38.5t61 24t83 9.5q229 0 229 -277q0 -35 -1 -59.5t-6 -62t-14.5 -63.5t-27 -55.5t-42.5 -48t-63.5 -30.5t-86.5 -12q-45 0 -81 12t-59 29t-39.5 45.5t-24.5 52.5t-12.5 60t-5 57t-0.5 53zM213 1411 q2 -90 21.5 -141t54.5 -51t60 47t26 145q0 141 -80 141q-39 0 -60.5 -28.5t-21.5 -106.5v-6z" />
<glyph unicode="&#xbb;" horiz-adv-x="897" d="M61 987l164 12l283 -393l-250 -364l-160 20l250 344zM389 995l164 13l283 -394l-250 -364l-160 20l250 344z" />
<glyph unicode="&#xbf;" horiz-adv-x="770" d="M61 309q0 204 127 451l13 393l213 4l4 -393q-139 -281 -139 -457q0 -104 81 -104q55 3 96.5 62t41.5 157q0 38 -13 88h211q13 -67 13 -123q0 -164 -86.5 -273.5t-249.5 -109.5t-237.5 82t-74.5 223zM180 1372q0 51 37.5 84t89.5 33q62 0 103 -37t41 -98q0 -53 -37 -87 t-90 -34q-58 0 -101 40.5t-43 98.5z" />
<glyph unicode="&#xc0;" d="M61 766q7 372 18 475q18 174 79 240q60 65 206 73q30 2 66 2q86 0 139 -17t90 -64.5t55.5 -122t28.5 -197.5q9 -123 9 -487t-9 -531l-241 4l-4 424l-199 -14l-6 -424l-221 4zM274 803l220 6v182q0 71 -3 121.5t-12 103.5t-30 81t-52 28h-12q-21 0 -36.5 -7.5t-34.5 -32 t-29.5 -83.5t-10.5 -149v-250zM276 1769l82 123l177 -184l-70 -70z" />
<glyph unicode="&#xc1;" d="M61 766q7 372 18 475q18 174 79 240q60 65 206 73q30 2 66 2q86 0 139 -17t90 -64.5t55.5 -122t28.5 -197.5q9 -123 9 -487t-9 -531l-241 4l-4 424l-199 -14l-6 -424l-221 4zM274 803l220 6v182q0 71 -3 121.5t-12 103.5t-30 81t-52 28h-12q-21 0 -36.5 -7.5t-34.5 -32 t-29.5 -83.5t-10.5 -149v-250zM276 1708l177 184l82 -123l-189 -131z" />
<glyph unicode="&#xc2;" d="M61 766q7 372 18 475q18 174 79 240q60 65 206 73q30 2 66 2q86 0 139 -17t90 -64.5t55.5 -122t28.5 -197.5q9 -123 9 -487t-9 -531l-241 4l-4 424l-199 -14l-6 -424l-221 4zM201 1716l205 238l204 -238l-69 -53l-135 123l-140 -127zM274 803l220 6v182q0 71 -3 121.5 t-12 103.5t-30 81t-52 28h-12q-21 0 -36.5 -7.5t-34.5 -32t-29.5 -83.5t-10.5 -149v-250z" />
<glyph unicode="&#xc3;" d="M61 766q7 372 18 475q18 174 79 240q60 65 206 73q30 2 66 2q86 0 139 -17t90 -64.5t55.5 -122t28.5 -197.5q9 -123 9 -487t-9 -531l-241 4l-4 424l-199 -14l-6 -424l-221 4zM127 1700q12 254 145 254q34 0 74.5 -28t70.5 -62t57.5 -62t39.5 -28q27 0 27 159v9l141 -27 q2 -10 2 -33q0 -235 -170 -235q-45 0 -87 23.5t-67 51t-47.5 51t-33.5 23.5q-16 0 -23.5 -45t-7.5 -72zM274 803l220 6v182q0 71 -3 121.5t-12 103.5t-30 81t-52 28h-12q-21 0 -36.5 -7.5t-34.5 -32t-29.5 -83.5t-10.5 -149v-250z" />
<glyph unicode="&#xc4;" d="M61 766q7 372 18 475q18 174 79 240q60 65 206 73q30 2 66 2q86 0 139 -17t90 -64.5t55.5 -122t28.5 -197.5q9 -123 9 -487t-9 -531l-241 4l-4 424l-199 -14l-6 -424l-221 4zM156 1780q0 42 28 68t68 26q43 0 75.5 -32.5t32.5 -76.5q0 -40 -28.5 -66t-67.5 -26 q-46 0 -77 29.5t-31 77.5zM274 803l220 6v182q0 71 -3 121.5t-12 103.5t-30 81t-52 28h-12q-21 0 -36.5 -7.5t-34.5 -32t-29.5 -83.5t-10.5 -149v-250zM451 1759q0 39 27.5 63.5t68.5 24.5q43 0 75.5 -29.5t32.5 -70.5q0 -36 -28.5 -60t-67.5 -24q-47 0 -77.5 26.5 t-30.5 69.5z" />
<glyph unicode="&#xc5;" d="M61 766q6 371 17 476q18 172 80 238q24 26 59 42q-37 49 -37 114q0 86 67.5 146.5t162.5 60.5t162 -60.5t67 -146.5q0 -59 -37 -112q64 -34 95.5 -119.5t45.5 -249.5q9 -123 9 -487t-9 -531l-241 4l-4 424l-199 -14l-6 -424l-221 4zM274 803l220 6v182q0 71 -3 121.5 t-12 103.5t-30 81t-52 28h-12q-21 0 -36.5 -7.5t-34.5 -32t-29.5 -83.5t-10.5 -149v-250zM324 1634q0 -32 25.5 -55t60.5 -23t60.5 23t25.5 55t-25.5 55t-60.5 23t-60.5 -23t-25.5 -55z" />
<glyph unicode="&#xc6;" horiz-adv-x="1167" d="M61 766q7 371 18 474q18 170 78 235q59 64 203 77q32 3 72 4l551 17l25 -246l-320 -24l23 -426l227 20l20 -233l-239 -9l14 -358l352 22l21 -245l-602 -23l-21 527l-184 -27l-6 -424l-221 4zM274 803l201 18l-16 459q-22 45 -62 45h-12q-21 0 -36.5 -7.5t-34.5 -32 t-29.5 -83.5t-10.5 -149v-250z" />
<glyph unicode="&#xc7;" horiz-adv-x="864" d="M61 739v33q0 65 5 125.5t21 134.5t42 136.5t70.5 125.5t103.5 109.5t145 80t191 44.5l47 -248q-87 -2 -155.5 -34.5t-111.5 -83t-71.5 -120t-39.5 -140.5t-11 -150q0 -61 10 -124.5t35 -130.5t62 -119t96.5 -85t132.5 -33q71 0 145 27l25 -254q-107 -21 -172 -21h-29 q-15 -124 -74.5 -193t-146.5 -69q-98 0 -176 125l102 88q47 -71 90 -74h11q49 0 49 58q0 12 -2 27t-6.5 37t-6.5 34q-124 46 -211.5 155t-128.5 246.5t-41 292.5z" />
<glyph unicode="&#xc8;" horiz-adv-x="831" d="M92 1540l555 25l25 -246l-320 -25l23 -426l227 21l21 -234l-240 -8l14 -358l353 22l20 -245l-623 -23zM287 1769l82 123l176 -184l-70 -70z" />
<glyph unicode="&#xc9;" horiz-adv-x="831" d="M92 1540l555 25l25 -246l-320 -25l23 -426l227 21l21 -234l-240 -8l14 -358l353 22l20 -245l-623 -23zM287 1708l176 184l82 -123l-189 -131z" />
<glyph unicode="&#xca;" horiz-adv-x="831" d="M61 1540l586 25l25 -246l-320 -25l23 -426l227 21l21 -234l-240 -8l14 -358l353 22l20 -245l-653 -23zM129 1702l205 237l205 -237l-70 -53l-135 123l-139 -127z" />
<glyph unicode="&#xcb;" horiz-adv-x="831" d="M53 1772q0 41 28.5 67.5t68.5 26.5q43 0 75.5 -32.5t32.5 -76.5q0 -40 -28.5 -66t-67.5 -26q-46 0 -77.5 29.5t-31.5 77.5zM61 1540l586 25l25 -246l-320 -25l23 -426l227 21l21 -234l-240 -8l14 -358l353 22l20 -245l-653 -23zM348 1751q0 39 27.5 63.5t68.5 24.5 q43 0 76 -29.5t33 -70.5q0 -36 -28.5 -60t-67.5 -24q-47 0 -78 26.5t-31 69.5z" />
<glyph unicode="&#xcc;" horiz-adv-x="413" d="M61 1524h269l22 -1479l-254 -16zM78 1769l82 123l176 -184l-70 -70z" />
<glyph unicode="&#xcd;" horiz-adv-x="413" d="M61 1524h269l22 -1479l-254 -16zM78 1708l176 184l82 -123l-189 -131z" />
<glyph unicode="&#xce;" horiz-adv-x="413" d="M2 1716l205 238l205 -238l-70 -53l-135 123l-139 -127zM61 1524h269l22 -1479l-254 -16z" />
<glyph unicode="&#xcf;" horiz-adv-x="413" d="M-43 1780q0 42 28 68t68 26q43 0 76 -32.5t33 -76.5q0 -40 -28.5 -66t-67.5 -26q-46 0 -77.5 29.5t-31.5 77.5zM61 1524h269l22 -1479l-254 -16zM252 1759q0 39 27.5 63.5t68.5 24.5q43 0 76 -29.5t33 -70.5q0 -36 -29 -60t-68 -24q-47 0 -77.5 26.5t-30.5 69.5z" />
<glyph unicode="&#xd0;" horiz-adv-x="925" d="M61 848l74 4l-37 717q61 10 140 10q133 0 240.5 -47.5t178.5 -127t118.5 -190t68 -231t20.5 -254.5q0 -118 -18.5 -219.5t-65.5 -197.5t-120 -163.5t-189 -108t-266 -40.5h-25l-37 705l-65 -5zM369 1307l22 -437l88 7l-8 -144l-72 -6l23 -428q52 7 92.5 52.5t65 118 t37 159t12.5 180.5q0 119 -27.5 230t-86 189.5t-136.5 78.5h-10z" />
<glyph unicode="&#xd1;" horiz-adv-x="946" d="M61 74l25 1360h195l337 -854l21 854l246 -17l-58 -1317l-211 -24l-321 702v-719zM178 1573q12 254 146 254q34 0 74.5 -28t70 -62t57 -62t39.5 -28q27 0 27 159v9l141 -27q2 -10 2 -33q0 -235 -170 -235q-45 0 -87 23.5t-67 51t-47.5 51t-33.5 23.5q-16 0 -23.5 -45 t-7.5 -72z" />
<glyph unicode="&#xd2;" horiz-adv-x="798" d="M61 856q0 260 32.5 408t99 209t182.5 61q20 0 35 1t16 1q309 0 309 -752q0 -21 1 -82.5t1 -99.5q0 -71 -3.5 -129t-13 -127.5t-29.5 -122t-50 -98t-78 -70t-110 -24.5q-60 0 -110 12.5t-87.5 32.5t-67 53.5t-49.5 68t-34.5 82.5t-22 90.5t-12.5 99.5t-6 101.5t-1 104.5z M270 1769l82 123l176 -184l-69 -70zM307 854q0 -498 94 -498q42 0 65 120.5t23 291.5q0 187 -28.5 325t-81.5 138q-19 0 -33 -14.5t-21 -36.5t-10.5 -43t-3.5 -39q0 -2 -2 -88t-2 -156z" />
<glyph unicode="&#xd3;" horiz-adv-x="798" d="M61 856q0 260 32.5 408t99 209t182.5 61q20 0 35 1t16 1q309 0 309 -752q0 -21 1 -82.5t1 -99.5q0 -71 -3.5 -129t-13 -127.5t-29.5 -122t-50 -98t-78 -70t-110 -24.5q-60 0 -110 12.5t-87.5 32.5t-67 53.5t-49.5 68t-34.5 82.5t-22 90.5t-12.5 99.5t-6 101.5t-1 104.5z M270 1708l176 184l82 -123l-188 -131zM307 854q0 -498 94 -498q42 0 65 120.5t23 291.5q0 187 -28.5 325t-81.5 138q-19 0 -33 -14.5t-21 -36.5t-10.5 -43t-3.5 -39q0 -2 -2 -88t-2 -156z" />
<glyph unicode="&#xd4;" horiz-adv-x="798" d="M61 856q0 260 32.5 408t99 209t182.5 61q20 0 35 1t16 1q309 0 309 -752q0 -21 1 -82.5t1 -99.5q0 -71 -3.5 -129t-13 -127.5t-29.5 -122t-50 -98t-78 -70t-110 -24.5q-60 0 -110 12.5t-87.5 32.5t-67 53.5t-49.5 68t-34.5 82.5t-22 90.5t-12.5 99.5t-6 101.5t-1 104.5z M195 1716l204 238l205 -238l-69 -53l-136 123l-139 -127zM307 854q0 -498 94 -498q42 0 65 120.5t23 291.5q0 187 -28.5 325t-81.5 138q-19 0 -33 -14.5t-21 -36.5t-10.5 -43t-3.5 -39q0 -2 -2 -88t-2 -156z" />
<glyph unicode="&#xd5;" horiz-adv-x="798" d="M61 856q0 260 32.5 408t99 209t182.5 61q20 0 35 1t16 1q309 0 309 -752q0 -21 1 -82.5t1 -99.5q0 -71 -3.5 -129t-13 -127.5t-29.5 -122t-50 -98t-78 -70t-110 -24.5q-60 0 -110 12.5t-87.5 32.5t-67 53.5t-49.5 68t-34.5 82.5t-22 90.5t-12.5 99.5t-6 101.5t-1 104.5z M121 1700q12 254 145 254q34 0 74.5 -28t70.5 -62t57.5 -62t39.5 -28q27 0 27 159v9l141 -27q2 -10 2 -33q0 -235 -170 -235q-45 0 -87 23.5t-67.5 51t-48 51t-33.5 23.5q-16 0 -23 -44.5t-7 -72.5zM307 854q0 -498 94 -498q42 0 65 120.5t23 291.5q0 187 -28.5 325 t-81.5 138q-19 0 -33 -14.5t-21 -36.5t-10.5 -43t-3.5 -39q0 -2 -2 -88t-2 -156z" />
<glyph unicode="&#xd6;" horiz-adv-x="798" d="M61 856q0 260 32.5 408t99 209t182.5 61q20 0 35 1t16 1q309 0 309 -752q0 -21 1 -82.5t1 -99.5q0 -71 -3.5 -129t-13 -127.5t-29.5 -122t-50 -98t-78 -70t-110 -24.5q-60 0 -110 12.5t-87.5 32.5t-67 53.5t-49.5 68t-34.5 82.5t-22 90.5t-12.5 99.5t-6 101.5t-1 104.5z M150 1780q0 42 28 68t68 26q43 0 75.5 -32.5t32.5 -76.5q0 -40 -28.5 -66t-67.5 -26q-46 0 -77 29.5t-31 77.5zM307 854q0 -498 94 -498q42 0 65 120.5t23 291.5q0 187 -28.5 325t-81.5 138q-19 0 -33 -14.5t-21 -36.5t-10.5 -43t-3.5 -39q0 -2 -2 -88t-2 -156zM444 1759 q0 39 28 63.5t69 24.5q43 0 75.5 -29.5t32.5 -70.5q0 -36 -28.5 -60t-67.5 -24q-47 0 -78 26.5t-31 69.5z" />
<glyph unicode="&#xd8;" horiz-adv-x="798" d="M61 856q0 260 32.5 408t99 209t182.5 61q20 0 35 1t16 1q82 0 139 -51l25 74l94 -35l-45 -138q96 -187 96 -602q0 -21 1 -82.5t1 -99.5q0 -71 -3.5 -129t-13 -127.5t-29.5 -122t-50 -98t-78 -70t-110 -24.5q-141 0 -228 65l-20 -67l-107 32l43 132q-49 86 -63.5 202.5 t-14.5 280.5zM307 854q0 -98 2 -149l142 428q0 7 1 27t1 30q0 129 -62 129h-10q-34 -5 -52 -85t-18 -136q0 -2 -2 -88t-2 -156zM336 403q0 -122 61 -124q59 0 75.5 108.5t16.5 380.5q0 45 -4 135l-147 -457q0 -4 -1 -18.5t-1 -24.5z" />
<glyph unicode="&#xd9;" horiz-adv-x="968" d="M61 946q0 234 43 481l236 -18q0 -68 -4 -223.5t-4 -239.5v-24v-83t1 -83.5t3 -85t5 -79.5t8.5 -76.5t12.5 -65.5t17 -57.5t22 -42.5t28.5 -29t35.5 -9q105 0 142.5 84.5t37.5 280.5q0 91 -10.5 338t-13.5 403l249 25q4 -73 14.5 -207.5t16.5 -247.5t6 -217 q0 -70 -2 -124.5t-10 -137t-23 -144t-43.5 -130t-68 -112.5t-100 -73t-136.5 -29q-242 0 -352.5 230.5t-110.5 695.5zM354 1769l82 123l176 -184l-69 -70z" />
<glyph unicode="&#xda;" horiz-adv-x="968" d="M61 946q0 234 43 481l236 -18q0 -68 -4 -223.5t-4 -239.5v-24v-83t1 -83.5t3 -85t5 -79.5t8.5 -76.5t12.5 -65.5t17 -57.5t22 -42.5t28.5 -29t35.5 -9q105 0 142.5 84.5t37.5 280.5q0 91 -10.5 338t-13.5 403l249 25q4 -73 14.5 -207.5t16.5 -247.5t6 -217 q0 -70 -2 -124.5t-10 -137t-23 -144t-43.5 -130t-68 -112.5t-100 -73t-136.5 -29q-242 0 -352.5 230.5t-110.5 695.5zM354 1708l176 184l82 -123l-188 -131z" />
<glyph unicode="&#xdb;" horiz-adv-x="968" d="M61 946q0 234 43 481l236 -18q0 -68 -4 -223.5t-4 -239.5v-24v-83t1 -83.5t3 -85t5 -79.5t8.5 -76.5t12.5 -65.5t17 -57.5t22 -42.5t28.5 -29t35.5 -9q105 0 142.5 84.5t37.5 280.5q0 91 -10.5 338t-13.5 403l249 25q1 -17 4.5 -53.5t4.5 -55.5q28 -356 28 -563 q0 -125 -9 -226.5t-32.5 -198.5t-61.5 -164t-100.5 -110t-144.5 -48q-6 0 -18 -1.5t-17 -1.5q-242 0 -352.5 230.5t-110.5 695.5zM279 1716l204 238l205 -238l-70 -53l-135 123l-139 -127z" />
<glyph unicode="&#xdc;" horiz-adv-x="968" d="M61 946q0 234 43 481l236 -18q0 -68 -4 -223.5t-4 -239.5v-24v-83t1 -83.5t3 -85t5 -79.5t8.5 -76.5t12.5 -65.5t17 -57.5t22 -42.5t28.5 -29t35.5 -9q105 0 142.5 84.5t37.5 280.5q0 91 -10.5 338t-13.5 403l249 25q1 -17 4.5 -53.5t4.5 -55.5q28 -356 28 -563 q0 -125 -9 -226.5t-32.5 -198.5t-61.5 -164t-100.5 -110t-144.5 -48q-6 0 -18 -1.5t-17 -1.5q-242 0 -352.5 230.5t-110.5 695.5zM233 1780q0 41 28.5 67.5t68.5 26.5q43 0 75.5 -32.5t32.5 -76.5q0 -40 -28.5 -66t-67.5 -26q-46 0 -77.5 29.5t-31.5 77.5zM528 1759 q0 39 28 63.5t69 24.5q43 0 75.5 -29.5t32.5 -70.5q0 -36 -28.5 -60t-67.5 -24q-47 0 -78 26.5t-31 69.5z" />
<glyph unicode="&#xdd;" horiz-adv-x="1144" d="M61 1356l201 160l311 -553l277 520l233 -125l-391 -662l-37 -639l-254 9l41 659zM442 1708l176 184l82 -123l-188 -131z" />
<glyph unicode="&#xdf;" horiz-adv-x="954" d="M61 1014q0 78 0.5 137t1.5 88.5t2.5 46.5t2 24t0.5 9q0 86 58.5 123t149.5 37q75 0 131.5 -14t90 -34.5t57 -54t34 -63t19.5 -70.5q8 -39 8 -76q0 -48 -14.5 -88t-31.5 -61t-31.5 -35.5t-14.5 -17.5q92 -11 178.5 -113t138.5 -246.5t52 -281.5q0 -74 -17.5 -135.5 t-53.5 -111t-97 -77t-143 -27.5q-70 0 -168 25l75 203q57 -49 95 -49q62 0 91.5 44t29.5 117q0 94 -41 204.5t-108.5 189.5t-133.5 79q-29 0 -53 -6l-21 181q82 57 82 149q0 56 -31 97.5t-75 41.5q-32 0 -64 -22l31 -1282l-215 2q-15 681 -15 1067z" />
<glyph unicode="&#xe0;" horiz-adv-x="884" d="M61 385q0 85 17 139.5t70 93.5t93.5 56.5t143.5 53.5q58 21 90 32q25 8 25 26q0 54 -103 54q-87 0 -227 -37l-25 205q121 26 265 26q76 0 132.5 -20t92 -54t60.5 -87.5t37.5 -111t23 -135.5t17 -150t20 -165.5t30.5 -171.5l-176 -76l-24 117q-123 -139 -275 -139 q-131 0 -209 86t-78 258zM266 375q0 -36 7 -65t31 -53t63 -24q74 0 219 95l-47 262q-269 -74 -273 -203v-12zM313 1229l82 123l176 -185l-69 -69z" />
<glyph unicode="&#xe1;" horiz-adv-x="884" d="M61 385q0 85 17 139.5t70 93.5t93.5 56.5t143.5 53.5q58 21 90 32q25 8 25 26q0 54 -103 54q-87 0 -227 -37l-25 205q121 26 265 26q76 0 132.5 -20t92 -54t60.5 -87.5t37.5 -111t23 -135.5t17 -150t20 -165.5t30.5 -171.5l-176 -76l-24 117q-123 -139 -275 -139 q-131 0 -209 86t-78 258zM266 375q0 -36 7 -65t31 -53t63 -24q74 0 219 95l-47 262q-269 -74 -273 -203v-12zM313 1167l176 185l82 -123l-188 -131z" />
<glyph unicode="&#xe2;" horiz-adv-x="884" d="M61 385q0 85 17 139.5t70 93.5t93.5 56.5t143.5 53.5q58 21 90 32q25 8 25 26q0 54 -103 54q-87 0 -227 -37l-25 205q121 26 265 26q76 0 132.5 -20t92 -54t60.5 -87.5t37.5 -111t23 -135.5t17 -150t20 -165.5t30.5 -171.5l-176 -76l-24 117q-123 -139 -275 -139 q-131 0 -209 86t-78 258zM238 1176l204 237l205 -237l-69 -54l-136 123l-139 -127zM266 375q0 -36 7 -65t31 -53t63 -24q74 0 219 95l-47 262q-269 -74 -273 -203v-12z" />
<glyph unicode="&#xe3;" horiz-adv-x="884" d="M61 385q0 85 17 139.5t70 93.5t93.5 56.5t143.5 53.5q58 21 90 32q25 8 25 26q0 54 -103 54q-87 0 -227 -37l-25 205q121 26 265 26q76 0 132.5 -20t92 -54t60.5 -87.5t37.5 -111t23 -135.5t17 -150t20 -165.5t30.5 -171.5l-176 -76l-24 117q-123 -139 -275 -139 q-131 0 -209 86t-78 258zM164 1159q12 254 145 254q34 0 74.5 -28t70.5 -62t57.5 -62t39.5 -28q27 0 27 160v8l141 -27q2 -10 2 -33q0 -235 -170 -235q-45 0 -87 23.5t-67.5 51t-48 51t-33.5 23.5q-16 0 -23 -44t-7 -72zM266 375q0 -36 7 -65t31 -53t63 -24q74 0 219 95 l-47 262q-269 -74 -273 -203v-12z" />
<glyph unicode="&#xe4;" horiz-adv-x="884" d="M61 385q0 85 17 139.5t70 93.5t93.5 56.5t143.5 53.5q58 21 90 32q25 8 25 26q0 54 -103 54q-87 0 -227 -37l-25 205q121 26 265 26q76 0 132.5 -20t92 -54t60.5 -87.5t37.5 -111t23 -135.5t17 -150t20 -165.5t30.5 -171.5l-176 -76l-24 117q-123 -139 -275 -139 q-131 0 -209 86t-78 258zM193 1239q0 42 28 68t68 26q43 0 75.5 -32t32.5 -76q0 -40 -28.5 -66t-67.5 -26q-46 0 -77 29t-31 77zM266 375q0 -36 7 -65t31 -53t63 -24q74 0 219 95l-47 262q-269 -74 -273 -203v-12zM487 1219q0 39 28 63.5t69 24.5q43 0 75.5 -30t32.5 -71 q0 -36 -28.5 -60t-67.5 -24q-47 0 -78 27t-31 70z" />
<glyph unicode="&#xe5;" horiz-adv-x="884" d="M61 385q0 85 17 139.5t70 93.5t93.5 56.5t143.5 53.5q58 21 90 32q25 8 25 26q0 54 -103 54q-87 0 -227 -37l-25 205q121 26 265 26q76 0 132.5 -20t92 -54t60.5 -87.5t37.5 -111t23 -135.5t17 -150t20 -165.5t30.5 -171.5l-176 -76l-24 117q-123 -139 -275 -139 q-131 0 -209 86t-78 258zM213 1303q0 86 67 146t162 60t162.5 -60t67.5 -146t-67.5 -146.5t-162.5 -60.5t-162 60.5t-67 146.5zM266 375q0 -36 7 -65t31 -53t63 -24q74 0 219 95l-47 262q-269 -74 -273 -203v-12zM356 1300q0 -32 25.5 -54.5t60.5 -22.5t60.5 22.5t25.5 54.5 t-25.5 55t-60.5 23t-60.5 -23t-25.5 -55z" />
<glyph unicode="&#xe6;" horiz-adv-x="1331" d="M61 418q0 48 8 86t21.5 64t38 47.5t49 35t64 27.5t74 24t87 26t95.5 32q24 8 24 26q0 35 -66.5 44.5t-246.5 9.5h-35l25 221q60 8 123 8q200 0 317 -117q91 105 270 105q169 0 240 -78t74 -258v-37q-16 -178 -428 -233q6 -22 12 -51.5t9.5 -43.5t9 -32t11 -26t15.5 -16.5 t23 -11t32 -2.5q71 0 131.5 36t132.5 106l99 -201q-196 -170 -369 -170q-65 6 -119 30.5t-153 92.5q-112 -121 -258 -121q-130 0 -220 102.5t-90 274.5zM289 375q0 -142 100 -142q72 0 197 82q-29 100 -47 263q-82 -22 -135 -47t-76 -51t-30.5 -46t-8.5 -47v-12zM754 745 q0 -18 8 -118q28 0 73 7.5t97 22.5t88.5 44t36.5 65q0 46 -36.5 71t-86.5 25q-68 0 -124 -32.5t-56 -84.5z" />
<glyph unicode="&#xe7;" horiz-adv-x="731" d="M61 477v21q0 115 65 214t175.5 157.5t239.5 58.5q37 0 71 -6l27 -187q-56 -2 -111.5 -17t-106.5 -42t-82.5 -73.5t-31.5 -104.5q0 -120 77.5 -183t195.5 -63q49 0 90 8l-11 -162q-44 -18 -104 -28q-12 -134 -72 -208.5t-151 -74.5q-98 0 -176 125l102 88q47 -71 90 -74 h10q50 0 50 58q0 25 -11 82q0 1 -1 3t-1 3q-144 27 -239 136t-95 269z" />
<glyph unicode="&#xe8;" horiz-adv-x="888" d="M61 565q0 94 16.5 165.5t56.5 133t116.5 94.5t187.5 33q185 0 262 -78t80 -256v-34q-2 -24 -12 -46t-41 -51t-79.5 -53t-135.5 -46.5t-201 -35.5q11 -139 119 -139q65 0 149.5 45.5t141.5 101.5l106 -166q-95 -85 -199 -132.5t-190 -47.5q-117 0 -204 70.5t-130 185 t-43 256.5zM268 682q0 -19 8 -117q31 0 80 7.5t105.5 22.5t96.5 43t40 64q0 47 -39 72t-94 25q-75 0 -136 -32.5t-61 -84.5zM315 1229l82 123l176 -185l-69 -69z" />
<glyph unicode="&#xe9;" horiz-adv-x="888" d="M61 565q0 94 16.5 165.5t56.5 133t116.5 94.5t187.5 33q185 0 262 -78t80 -256v-34q-2 -24 -12 -46t-41 -51t-79.5 -53t-135.5 -46.5t-201 -35.5q11 -139 119 -139q65 0 149.5 45.5t141.5 101.5l106 -166q-95 -85 -199 -132.5t-190 -47.5q-117 0 -204 70.5t-130 185 t-43 256.5zM268 682q0 -19 8 -117q31 0 80 7.5t105.5 22.5t96.5 43t40 64q0 47 -39 72t-94 25q-75 0 -136 -32.5t-61 -84.5zM315 1167l177 185l81 -123l-188 -131z" />
<glyph unicode="&#xea;" horiz-adv-x="888" d="M61 565q0 94 16.5 165.5t56.5 133t116.5 94.5t187.5 33q185 0 262 -78t80 -256v-34q-2 -24 -12 -46t-41 -51t-79.5 -53t-135.5 -46.5t-201 -35.5q11 -139 119 -139q65 0 149.5 45.5t141.5 101.5l106 -166q-95 -85 -199 -132.5t-190 -47.5q-117 0 -204 70.5t-130 185 t-43 256.5zM240 1176l204 237l205 -237l-69 -54l-136 123l-139 -127zM268 682q0 -19 8 -117q31 0 80 7.5t105.5 22.5t96.5 43t40 64q0 47 -39 72t-94 25q-75 0 -136 -32.5t-61 -84.5z" />
<glyph unicode="&#xeb;" horiz-adv-x="888" d="M61 565q0 94 16.5 165.5t56.5 133t116.5 94.5t187.5 33q185 0 262 -78t80 -256v-34q-2 -24 -12 -46t-41 -51t-79.5 -53t-135.5 -46.5t-201 -35.5q11 -139 119 -139q65 0 149.5 45.5t141.5 101.5l106 -166q-95 -85 -199 -132.5t-190 -47.5q-117 0 -204 70.5t-130 185 t-43 256.5zM195 1239q0 42 28 68t68 26q43 0 75.5 -32t32.5 -76q0 -40 -28.5 -66t-67.5 -26q-46 0 -77 29t-31 77zM268 682q0 -19 8 -117q31 0 80 7.5t105.5 22.5t96.5 43t40 64q0 47 -39 72t-94 25q-75 0 -136 -32.5t-61 -84.5zM489 1219q0 39 28 63.5t69 24.5 q43 0 75.5 -30t32.5 -71q0 -36 -28.5 -60t-67.5 -24q-47 0 -78 27t-31 70z" />
<glyph unicode="&#xec;" horiz-adv-x="415" d="M70 1307l82 123l176 -185l-70 -69zM78 1036l256 15l14 -889l-203 10z" />
<glyph unicode="&#xed;" horiz-adv-x="415" d="M61 1249l177 185l81 -123l-188 -131zM78 1036l256 15l14 -889l-203 10z" />
<glyph unicode="&#xee;" horiz-adv-x="415" d="M-4 1245l205 238l205 -238l-70 -53l-135 123l-140 -127zM78 1036l256 15l14 -889l-203 10z" />
<glyph unicode="&#xef;" horiz-adv-x="415" d="M-41 1239q0 42 28 68t68 26q43 0 76 -32t33 -76q0 -40 -28.5 -66t-67.5 -26q-46 0 -77.5 29t-31.5 77zM78 1036l256 15l14 -889l-203 10zM254 1219q0 39 27.5 63.5t68.5 24.5q43 0 76 -30t33 -71q0 -36 -29 -60t-68 -24q-47 0 -77.5 26.5t-30.5 70.5z" />
<glyph unicode="&#xf0;" horiz-adv-x="800" d="M61 375q0 138 79 220.5t204 82.5q72 0 154 -31q0 208 -144 443l-59 -46l-57 74l63 53q-32 46 -82 111l189 141q30 -35 73 -96l76 66l57 -111l-67 -51q192 -315 192 -670v-20q-4 -268 -96 -387.5t-293 -124.5q-94 0 -161.5 52t-97.5 128.5t-30 165.5zM236 381 q0 -83 48 -130.5t111 -47.5q57 0 97 42t40 122v10q-1 61 -43.5 93t-101.5 32q-61 0 -106 -32.5t-45 -88.5z" />
<glyph unicode="&#xf1;" horiz-adv-x="790" d="M68 1067l194 -16l12 -109q99 51 179 51q86 0 148.5 -56t92 -148t29.5 -209q0 -233 -23 -482q0 -2 -8 -2q-36 0 -207 15l2 456q0 180 -65 193q-20 4 -25 4q-45 0 -78 -50.5t-38 -103.5l-5 -489l-202 12zM117 1159q12 254 145 254q34 0 74.5 -28t70.5 -62t57.5 -62 t39.5 -28q26 0 26 160v8l142 -27q2 -10 2 -33q0 -235 -170 -235q-45 0 -87 23.5t-67.5 51t-48 51t-33.5 23.5q-16 0 -23 -44t-7 -72z" />
<glyph unicode="&#xf2;" horiz-adv-x="729" d="M61 547v8q0 55 1.5 93.5t8.5 89.5t19 85.5t35 72t55 59.5t80 36.5t109 14.5q74 0 129.5 -27.5t87 -69t51 -100.5t25.5 -112.5t6 -114.5q0 -54 -1.5 -92t-8 -95.5t-18.5 -98t-36 -85.5t-56.5 -73.5t-83 -47t-114.5 -18.5q-47 0 -85.5 11t-66.5 28t-50.5 46t-36.5 55 t-24 65.5t-15 68t-7.5 72t-3 67t-0.5 62.5zM236 1229l81 123l177 -185l-70 -69zM260 565q2 -137 28 -216t70 -79q46 0 79 72t34 223q0 217 -104 217q-50 0 -78.5 -44.5t-28.5 -162.5v-10z" />
<glyph unicode="&#xf3;" horiz-adv-x="729" d="M61 547v8q0 55 1.5 93.5t8.5 89.5t19 85.5t35 72t55 59.5t80 36.5t109 14.5q74 0 129.5 -27.5t87 -69t51 -100.5t25.5 -112.5t6 -114.5q0 -54 -1.5 -92t-8 -95.5t-18.5 -98t-36 -85.5t-56.5 -73.5t-83 -47t-114.5 -18.5q-47 0 -85.5 11t-66.5 28t-50.5 46t-36.5 55 t-24 65.5t-15 68t-7.5 72t-3 67t-0.5 62.5zM236 1167l176 185l82 -123l-189 -131zM260 565q2 -137 28 -216t70 -79q46 0 79 72t34 223q0 217 -104 217q-50 0 -78.5 -44.5t-28.5 -162.5v-10z" />
<glyph unicode="&#xf4;" horiz-adv-x="729" d="M61 547v8q0 55 1.5 93.5t8.5 89.5t19 85.5t35 72t55 59.5t80 36.5t109 14.5q74 0 129.5 -27.5t87 -69t51 -100.5t25.5 -112.5t6 -114.5q0 -54 -1.5 -92t-8 -95.5t-18.5 -98t-36 -85.5t-56.5 -73.5t-83 -47t-114.5 -18.5q-47 0 -85.5 11t-66.5 28t-50.5 46t-36.5 55 t-24 65.5t-15 68t-7.5 72t-3 67t-0.5 62.5zM160 1176l205 237l204 -237l-69 -54l-135 123l-140 -127zM260 565q2 -137 28 -216t70 -79q46 0 79 72t34 223q0 217 -104 217q-50 0 -78.5 -44.5t-28.5 -162.5v-10z" />
<glyph unicode="&#xf5;" horiz-adv-x="729" d="M61 547v8q0 55 1.5 93.5t8.5 89.5t19 85.5t35 72t55 59.5t80 36.5t109 14.5q74 0 129.5 -27.5t87 -69t51 -100.5t25.5 -112.5t6 -114.5q0 -54 -1.5 -92t-8 -95.5t-18.5 -98t-36 -85.5t-56.5 -73.5t-83 -47t-114.5 -18.5q-47 0 -85.5 11t-66.5 28t-50.5 46t-36.5 55 t-24 65.5t-15 68t-7.5 72t-3 67t-0.5 62.5zM86 1159q12 254 145 254q34 0 74.5 -28t70.5 -62t57.5 -62t39.5 -28q27 0 27 160v8l141 -27q2 -10 2 -33q0 -235 -170 -235q-45 0 -87 23.5t-67 51t-47.5 51t-33.5 23.5q-16 0 -23.5 -44.5t-7.5 -71.5zM260 565q2 -137 28 -216 t70 -79q46 0 79 72t34 223q0 217 -104 217q-50 0 -78.5 -44.5t-28.5 -162.5v-10z" />
<glyph unicode="&#xf6;" horiz-adv-x="729" d="M61 547v8q0 55 1.5 93.5t8.5 89.5t19 85.5t35 72t55 59.5t80 36.5t109 14.5q74 0 129.5 -27.5t87 -69t51 -100.5t25.5 -112.5t6 -114.5q0 -54 -1.5 -92t-8 -95.5t-18.5 -98t-36 -85.5t-56.5 -73.5t-83 -47t-114.5 -18.5q-47 0 -85.5 11t-66.5 28t-50.5 46t-36.5 55 t-24 65.5t-15 68t-7.5 72t-3 67t-0.5 62.5zM115 1239q0 42 28 68t68 26q43 0 75.5 -32t32.5 -76q0 -40 -28.5 -66t-67.5 -26q-46 0 -77 29t-31 77zM260 565q2 -137 28 -216t70 -79q46 0 79 72t34 223q0 217 -104 217q-50 0 -78.5 -44.5t-28.5 -162.5v-10zM410 1219 q0 39 27.5 63.5t68.5 24.5q43 0 75.5 -30t32.5 -71q0 -36 -28.5 -60t-67.5 -24q-47 0 -77.5 26.5t-30.5 70.5z" />
<glyph unicode="&#xf8;" horiz-adv-x="729" d="M61 547v8q0 55 1.5 93.5t8.5 89.5t19 85.5t35 72t55 59.5t80 36.5t109 14.5q58 0 120 -25l31 76l70 -33l-35 -84q113 -103 113 -358q0 -54 -1.5 -92t-8 -95.5t-18.5 -98t-36 -85.5t-56.5 -73.5t-83 -47t-114.5 -18.5q-92 0 -147 37l-31 -72l-57 29l35 88q-31 35 -50.5 84 t-27 109.5t-9.5 99.5t-2 100zM260 565q0 -76 8 -125l135 332q-17 10 -36 10q-50 0 -78.5 -44.5t-28.5 -162.5v-10zM295 328q24 -58 63 -58q46 0 79 72t34 223q0 84 -16 137z" />
<glyph unicode="&#xf9;" horiz-adv-x="878" d="M68 532q0 103 20.5 251.5t20.5 156.5l245 -20q-1 -2 -2.5 -10t-3.5 -13q0 -2 -8 -39.5t-11.5 -55.5t-11 -58.5t-11 -69.5t-6.5 -67t-3 -70q0 -200 104 -218q20 -4 31 -4q36 0 62.5 19t41.5 56.5t24 80.5t12 104t4 113t2 121t4 115l229 -11l-43 -827l-203 -16 q-16 71 -18 71q-10 -15 -62.5 -26t-103.5 -11q-313 0 -313 428zM309 1229l82 123l176 -185l-69 -69z" />
<glyph unicode="&#xfa;" horiz-adv-x="878" d="M68 532q0 103 20.5 251.5t20.5 156.5l245 -20q-1 -2 -2.5 -10t-3.5 -13q0 -2 -8 -39.5t-11.5 -55.5t-11 -58.5t-11 -69.5t-6.5 -67t-3 -70q0 -200 104 -218q20 -4 31 -4q36 0 62.5 19t41.5 56.5t24 80.5t12 104t4 113t2 121t4 115l229 -11l-43 -827l-203 -16 q-16 71 -18 71q-10 -15 -62.5 -26t-103.5 -11q-313 0 -313 428zM309 1167l176 185l82 -123l-188 -131z" />
<glyph unicode="&#xfb;" horiz-adv-x="878" d="M68 532q0 103 20.5 251.5t20.5 156.5l245 -20q-1 -2 -2.5 -10t-3.5 -13q0 -2 -8 -39.5t-11.5 -55.5t-11 -58.5t-11 -69.5t-6.5 -67t-3 -70q0 -200 104 -218q20 -4 31 -4q36 0 62.5 19t41.5 56.5t24 80.5t12 104t4 113t2 121t4 115l229 -11l-43 -827l-203 -16 q-16 71 -18 71q-10 -15 -62.5 -26t-103.5 -11q-313 0 -313 428zM233 1176l205 237l205 -237l-70 -54l-135 123l-139 -127z" />
<glyph unicode="&#xfc;" horiz-adv-x="878" d="M68 532q0 103 20.5 251.5t20.5 156.5l245 -20q-1 -2 -2.5 -10t-3.5 -13q0 -2 -8 -39.5t-11.5 -55.5t-11 -58.5t-11 -69.5t-6.5 -67t-3 -70q0 -200 104 -218q20 -4 31 -4q36 0 62.5 19t41.5 56.5t24 80.5t12 104t4 113t2 121t4 115l229 -11l-43 -827l-203 -16 q-16 71 -18 71q-10 -15 -62.5 -26t-103.5 -11q-313 0 -313 428zM188 1239q0 41 28.5 67.5t68.5 26.5q43 0 75.5 -32t32.5 -76q0 -40 -28.5 -66t-67.5 -26q-46 0 -77.5 29t-31.5 77zM483 1219q0 39 28 63.5t69 24.5q43 0 75.5 -30t32.5 -71q0 -36 -28.5 -60t-67.5 -24 q-47 0 -78 27t-31 70z" />
<glyph unicode="&#xfd;" horiz-adv-x="890" d="M68 -150q202 80 202 78q-2 -23 54.5 -85t97.5 -62q46 5 80.5 50t52.5 115t26.5 143.5t8.5 150.5q0 78 -6 127q-102 -35 -162 -35q-62 0 -111 21.5t-80.5 62t-52.5 88.5t-32 111.5t-15 119.5t-4 123v47l2 125h277q-17 -57 -17 -252q0 -123 16.5 -193.5t47.5 -70.5 q83 0 90 139v39q0 44 -5.5 157t-5.5 177l246 31q1 -16 14.5 -201.5t20 -318t6.5 -248.5q0 -719 -420 -719q-133 0 -218.5 76.5t-112.5 203.5zM315 1167l177 185l81 -123l-188 -131z" />
<glyph unicode="&#xff;" horiz-adv-x="890" d="M68 -150q202 80 202 78q-2 -23 54.5 -85t97.5 -62q46 5 80.5 50t52.5 115t26.5 143.5t8.5 150.5q0 78 -6 127q-102 -35 -162 -35q-62 0 -111 21.5t-80.5 62t-52.5 88.5t-32 111.5t-15 119.5t-4 123v47l2 125h277q-17 -57 -17 -252q0 -123 16.5 -193.5t47.5 -70.5 q83 0 90 139v39q0 44 -5.5 157t-5.5 177l246 31q1 -16 14.5 -201.5t20 -318t6.5 -248.5q0 -719 -420 -719q-133 0 -218.5 76.5t-112.5 203.5zM195 1239q0 42 28 68t68 26q43 0 75.5 -32t32.5 -76q0 -40 -28.5 -66t-67.5 -26q-46 0 -77 29t-31 77zM489 1219q0 39 28 63.5 t69 24.5q43 0 75.5 -30t32.5 -71q0 -36 -28.5 -60t-67.5 -24q-47 0 -78 27t-31 70z" />
<glyph unicode="&#x152;" horiz-adv-x="1196" d="M61 856q0 260 32.5 406.5t99 207.5t182.5 64l657 18l25 -245l-320 -25l2 -426l228 21l20 -234l-239 -8l14 -359l352 23l21 -246l-682 -22q-60 0 -110 12.5t-87 32.5t-66.5 53.5t-49 67t-34 83t-22.5 90.5t-12.5 100t-6 101.5t-2.5 104.5zM307 854q0 -71 1.5 -126.5 t6.5 -127t15.5 -123t26.5 -98.5t42 -71.5t60 -24.5q84 0 84 311q0 33 -2 82t-2 61q-1 181 -9.5 289.5t-28.5 165t-44.5 73.5t-67.5 17q-24 0 -40.5 -25.5t-21.5 -53.5t-5 -54q0 -2 -7.5 -113.5t-7.5 -181.5z" />
<glyph unicode="&#x153;" horiz-adv-x="1216" d="M61 547v8q0 55 1.5 93.5t8.5 89.5t19 85.5t35 72t55 59.5t80 36.5t109 14.5q99 0 168 -52q93 90 258 90q169 0 239.5 -77.5t73.5 -257.5v-37q-2 -19 -9 -37.5t-23 -42t-47.5 -45t-76 -42t-114.5 -38t-158 -29.5q6 -23 13.5 -58.5t11 -48.5t11 -32.5t16.5 -25.5t24 -11.5 t37 -5.5q71 0 131.5 35.5t132.5 105.5l98 -200q-196 -170 -369 -170h-24q-122 16 -207 118q-73 -73 -205 -73q-47 0 -85.5 11t-66.5 28t-50.5 46t-36.5 55t-24 65.5t-15 68t-7.5 72t-3 67t-0.5 62.5zM260 565q2 -137 28 -216t70 -79q28 0 53.5 28.5t39.5 86.5 q-23 112 -23 231q0 71 8 123q-27 43 -69 43q-50 0 -78.5 -44.5t-28.5 -162.5v-10zM639 733q0 -19 8 -119q28 0 73 7.5t97 23t88.5 44.5t36.5 65q0 46 -36.5 71t-86.5 25q-68 0 -124 -32.5t-56 -84.5z" />
<glyph unicode="&#x178;" horiz-adv-x="1144" d="M61 1389q0 47 78.5 87t130.5 40l299 -521l275 492q23 26 59 26q56 0 118 -52t62 -83q0 -1 -1 -3t-1 -3q0 -7 -62 -119.5t-104 -183.5l-206 -356l-54 -619q-7 -29 -28 -38t-54 -9h-28q-131 0 -131 72l-4 610l-347 649q-2 0 -2 11zM322 1780q0 42 28 68t68 26 q43 0 75.5 -32.5t32.5 -76.5q0 -40 -28.5 -66t-67.5 -26q-46 0 -77 29.5t-31 77.5zM616 1759q0 39 28 63.5t69 24.5q43 0 75.5 -29.5t32.5 -70.5q0 -36 -28.5 -60t-67.5 -24q-47 0 -78 26.5t-31 69.5z" />
<glyph unicode="&#x2000;" horiz-adv-x="977" />
<glyph unicode="&#x2001;" horiz-adv-x="1954" />
<glyph unicode="&#x2002;" horiz-adv-x="977" />
<glyph unicode="&#x2003;" horiz-adv-x="1954" />
<glyph unicode="&#x2004;" horiz-adv-x="651" />
<glyph unicode="&#x2005;" horiz-adv-x="488" />
<glyph unicode="&#x2006;" horiz-adv-x="325" />
<glyph unicode="&#x2007;" horiz-adv-x="325" />
<glyph unicode="&#x2008;" horiz-adv-x="244" />
<glyph unicode="&#x2009;" horiz-adv-x="390" />
<glyph unicode="&#x200a;" horiz-adv-x="108" />
<glyph unicode="&#x2010;" horiz-adv-x="753" d="M61 725l631 -4l-16 -201h-598z" />
<glyph unicode="&#x2011;" horiz-adv-x="753" d="M61 725l631 -4l-16 -201h-598z" />
<glyph unicode="&#x2012;" horiz-adv-x="753" d="M61 725l631 -4l-16 -201h-598z" />
<glyph unicode="&#x2013;" horiz-adv-x="1146" d="M61 725l1024 -4l-26 -201h-970z" />
<glyph unicode="&#x2014;" horiz-adv-x="2170" d="M61 725l2048 -4l-52 -201h-1941z" />
<glyph unicode="&#x2018;" horiz-adv-x="299" d="M61 1085l41 431l111 16l25 -438z" />
<glyph unicode="&#x2019;" horiz-adv-x="299" d="M61 1524l177 8l-41 -430l-111 -17z" />
<glyph unicode="&#x201a;" horiz-adv-x="299" d="M61 336l177 8l-41 -430l-111 -16z" />
<glyph unicode="&#x201c;" horiz-adv-x="548" d="M61 1085l41 431l111 16l25 -438zM311 1085l41 431l111 16l24 -438z" />
<glyph unicode="&#x201d;" horiz-adv-x="548" d="M61 1524l177 8l-41 -430l-111 -17zM311 1524l176 8l-41 -430l-110 -17z" />
<glyph unicode="&#x201e;" horiz-adv-x="548" d="M61 299l177 8l-41 -430l-111 -16zM311 299l176 8l-41 -430l-110 -16z" />
<glyph unicode="&#x202f;" horiz-adv-x="390" />
<glyph unicode="&#x2039;" horiz-adv-x="569" d="M61 614l283 394l164 -13l-287 -381l250 -344l-160 -20z" />
<glyph unicode="&#x203a;" horiz-adv-x="569" d="M61 995l164 13l283 -394l-250 -364l-160 20l250 344z" />
<glyph unicode="&#x205f;" horiz-adv-x="488" />
<glyph unicode="&#x20ac;" horiz-adv-x="868" d="M61 983l78 2q18 488 334 488q203 0 291 -291l-172 -113q-42 145 -111 145q-42 -1 -70.5 -63t-41.5 -160l188 4l-8 -114h-189v-43q0 -49 7 -121l120 4l-16 -131l-88 6q25 -128 70.5 -210.5t105.5 -82.5q42 0 59 127l189 -88q-56 -285 -246 -285q-67 0 -125.5 33.5 t-100 86.5t-75.5 127.5t-55.5 148.5t-36.5 157l-66 4l-24 95l76 2q-12 92 -15 170h-61z" />
<glyph unicode="&#x25fc;" horiz-adv-x="1054" d="M0 0v1055h1055v-1055h-1055z" />
</font>
</defs>
</svg>
